<svg width="67" height="47" viewBox="0 0 67 47" fill="none" xmlns="http://www.w3.org/2000/svg">
<path d="M65.6092 10.4682C65.6092 10.4682 64.9646 5.91737 62.9793 3.91912C60.4653 1.28915 57.6549 1.27626 56.3657 1.12155C47.135 0.451172 33.2761 0.451172 33.2761 0.451172H33.2503C33.2503 0.451172 19.3915 0.451172 10.1608 1.12155C8.87161 1.27626 6.06116 1.28915 3.54722 3.91912C1.56186 5.91737 0.930149 10.4682 0.930149 10.4682C0.930149 10.4682 0.259766 15.8184 0.259766 21.1557V26.1578C0.259766 31.4951 0.917257 36.8452 0.917257 36.8452C0.917257 36.8452 1.56186 41.3961 3.53433 43.3944C6.04826 46.0243 9.34861 45.9341 10.8183 46.2177C16.104 46.7205 33.2632 46.8752 33.2632 46.8752C33.2632 46.8752 47.135 46.8494 56.3657 46.1919C57.6549 46.0372 60.4653 46.0243 62.9793 43.3944C64.9646 41.3961 65.6092 36.8452 65.6092 36.8452C65.6092 36.8452 66.2667 31.508 66.2667 26.1578V21.1557C66.2667 15.8184 65.6092 10.4682 65.6092 10.4682ZM26.4434 32.2299V13.6783L44.273 22.9864L26.4434 32.2299Z" fill="#B8A182"/>
</svg>
