<svg width="49" height="49" viewBox="0 0 49 49" fill="none" xmlns="http://www.w3.org/2000/svg">
<path d="M24.209 4.7856C30.6427 4.7856 31.4045 4.81381 33.9347 4.92664C36.2862 5.03006 37.556 5.42496 38.4025 5.75403C39.5219 6.18654 40.3308 6.71306 41.1679 7.54986C42.0144 8.39606 42.5317 9.19525 42.9644 10.3141C43.2936 11.1603 43.6887 12.439 43.7921 14.7802C43.905 17.3188 43.9332 18.0804 43.9332 24.5021C43.9332 30.9332 43.905 31.6948 43.7921 34.224C43.6887 36.5746 43.2936 37.8439 42.9644 38.6901C42.5317 39.8089 42.005 40.6175 41.1679 41.4543C40.3214 42.3005 39.5219 42.8177 38.4025 43.2502C37.556 43.5792 36.2768 43.9741 33.9347 44.0776C31.3951 44.1904 30.6333 44.2186 24.209 44.2186C17.7754 44.2186 17.0135 44.1904 14.4833 44.0776C12.1318 43.9741 10.862 43.5792 10.0155 43.2502C8.89619 42.8177 8.08729 42.2911 7.25016 41.4543C6.40363 40.6081 5.8863 39.8089 5.45363 38.6901C5.12442 37.8439 4.72937 36.5652 4.62591 34.224C4.51304 31.6854 4.48482 30.9238 4.48482 24.5021C4.48482 18.071 4.51304 17.3094 4.62591 14.7802C4.72937 12.4296 5.12442 11.1603 5.45363 10.3141C5.8863 9.19525 6.41303 8.38666 7.25016 7.54986C8.09669 6.70366 8.89619 6.18654 10.0155 5.75403C10.862 5.42496 12.1412 5.03006 14.4833 4.92664C17.0135 4.81381 17.7754 4.7856 24.209 4.7856ZM24.209 0.451172C17.6719 0.451172 16.8536 0.479379 14.2858 0.592205C11.7274 0.705032 9.96847 1.11873 8.44471 1.71107C6.85511 2.33162 5.51007 3.14961 4.17443 4.49413C2.82938 5.82925 2.01107 7.17377 1.39028 8.75335C0.797703 10.2859 0.383842 12.0347 0.270972 14.5921C0.158101 17.1684 0.129883 17.9863 0.129883 24.5209C0.129883 31.0555 0.158101 31.8735 0.270972 34.4403C0.383842 36.9977 0.797703 38.7559 1.39028 40.2791C2.01107 41.868 2.82938 43.2126 4.17443 44.5477C5.51007 45.8828 6.85511 46.7102 8.43531 47.3213C9.96847 47.9137 11.718 48.3274 14.2764 48.4402C16.8442 48.553 17.6625 48.5812 24.1996 48.5812C30.7367 48.5812 31.555 48.553 34.1229 48.4402C36.6813 48.3274 38.4402 47.9137 39.9639 47.3213C41.5441 46.7102 42.8892 45.8828 44.2248 44.5477C45.5604 43.2126 46.3882 41.868 46.9995 40.2885C47.5921 38.7559 48.006 37.0071 48.1189 34.4497C48.2317 31.8829 48.2599 31.0649 48.2599 24.5303C48.2599 17.9958 48.2317 17.1778 48.1189 14.6109C48.006 12.0535 47.5921 10.2953 46.9995 8.77215C46.407 7.17377 45.5887 5.82925 44.2436 4.49413C42.908 3.15902 41.5629 2.33162 39.9827 1.72047C38.4496 1.12813 36.7001 0.714435 34.1417 0.601608C31.5644 0.479379 30.7461 0.451172 24.209 0.451172Z" fill="#B8A182"/>
<path d="M24.2086 12.1562C17.3799 12.1562 11.8398 17.6942 11.8398 24.5202C11.8398 31.3462 17.3799 36.8841 24.2086 36.8841C31.0373 36.8841 36.5774 31.3462 36.5774 24.5202C36.5774 17.6942 31.0373 12.1562 24.2086 12.1562ZM24.2086 32.5403C19.7784 32.5403 16.1854 28.9487 16.1854 24.5202C16.1854 20.0917 19.7784 16.5001 24.2086 16.5001C28.6388 16.5001 32.2319 20.0917 32.2319 24.5202C32.2319 28.9487 28.6388 32.5403 24.2086 32.5403Z" fill="#B8A182"/>
<path d="M39.9549 11.6697C39.9549 13.2681 38.6569 14.5562 37.0673 14.5562C35.4683 14.5562 34.1797 13.2587 34.1797 11.6697C34.1797 10.0713 35.4777 8.7832 37.0673 8.7832C38.6569 8.7832 39.9549 10.0807 39.9549 11.6697Z" fill="#B8A182"/>
</svg>
