<svg width="49" height="49" viewBox="0 0 49 49" fill="none" xmlns="http://www.w3.org/2000/svg">
<path fill-rule="evenodd" clip-rule="evenodd" d="M48.3967 24.5162C48.3967 37.807 37.6224 48.5812 24.3316 48.5812C11.0409 48.5812 0.266602 37.807 0.266602 24.5162C0.266602 11.2255 11.0409 0.451172 24.3316 0.451172C37.6224 0.451172 48.3967 11.2255 48.3967 24.5162ZM25.1937 18.218C22.8531 19.1916 18.175 21.2066 11.1596 24.2631C10.0204 24.7162 9.4236 25.1593 9.36927 25.5927C9.27746 26.3251 10.1946 26.6134 11.4435 27.0061C11.6134 27.0596 11.7894 27.1149 11.9698 27.1736C13.1986 27.573 14.8514 28.0402 15.7106 28.0588C16.4901 28.0756 17.36 27.7543 18.3204 27.0948C24.8752 22.6702 28.2587 20.4338 28.4712 20.3855C28.621 20.3515 28.8287 20.3088 28.9694 20.4338C29.1101 20.5589 29.0963 20.7958 29.0814 20.8593C28.9906 21.2466 25.3905 24.5935 23.5275 26.3256C22.9467 26.8656 22.5347 27.2486 22.4504 27.3361C22.2618 27.532 22.0695 27.7174 21.8847 27.8955C20.7432 28.9959 19.8872 29.8211 21.9321 31.1687C22.9148 31.8163 23.7012 32.3518 24.4856 32.886C25.3424 33.4695 26.197 34.0515 27.3026 34.7762C27.5843 34.9609 27.8533 35.1527 28.1154 35.3395C29.1124 36.0503 30.0082 36.6889 31.1149 36.5871C31.7579 36.5279 32.4222 35.9232 32.7595 34.1198C33.5567 29.8579 35.1238 20.6236 35.486 16.8183C35.5177 16.4849 35.4778 16.0583 35.4457 15.871C35.4137 15.6837 35.3467 15.4168 35.1032 15.2193C34.8149 14.9853 34.3698 14.936 34.1707 14.9395C33.2656 14.9554 31.8769 15.4383 25.1937 18.218Z" fill="#B8A182"/>
</svg>
